%TF.GenerationSoftware,KiCad,Pcbnew,9.0.2*%
%TF.CreationDate,2025-05-31T23:28:22-05:00*%
%TF.ProjectId,ME433_Proj,4d453433-335f-4507-926f-6a2e6b696361,rev?*%
%TF.SameCoordinates,Original*%
%TF.FileFunction,Copper,L1,Top*%
%TF.FilePolarity,Positive*%
%FSLAX46Y46*%
G04 Gerber Fmt 4.6, Leading zero omitted, Abs format (unit mm)*
G04 Created by KiCad (PCBNEW 9.0.2) date 2025-05-31 23:28:22*
%MOMM*%
%LPD*%
G01*
G04 APERTURE LIST*
G04 Aperture macros list*
%AMRoundRect*
0 Rectangle with rounded corners*
0 $1 Rounding radius*
0 $2 $3 $4 $5 $6 $7 $8 $9 X,Y pos of 4 corners*
0 Add a 4 corners polygon primitive as box body*
4,1,4,$2,$3,$4,$5,$6,$7,$8,$9,$2,$3,0*
0 Add four circle primitives for the rounded corners*
1,1,$1+$1,$2,$3*
1,1,$1+$1,$4,$5*
1,1,$1+$1,$6,$7*
1,1,$1+$1,$8,$9*
0 Add four rect primitives between the rounded corners*
20,1,$1+$1,$2,$3,$4,$5,0*
20,1,$1+$1,$4,$5,$6,$7,0*
20,1,$1+$1,$6,$7,$8,$9,0*
20,1,$1+$1,$8,$9,$2,$3,0*%
G04 Aperture macros list end*
%TA.AperFunction,SMDPad,CuDef*%
%ADD10RoundRect,0.150000X-0.512500X-0.150000X0.512500X-0.150000X0.512500X0.150000X-0.512500X0.150000X0*%
%TD*%
%TA.AperFunction,SMDPad,CuDef*%
%ADD11RoundRect,0.250000X-0.625000X0.312500X-0.625000X-0.312500X0.625000X-0.312500X0.625000X0.312500X0*%
%TD*%
%TA.AperFunction,SMDPad,CuDef*%
%ADD12RoundRect,0.218750X0.218750X0.256250X-0.218750X0.256250X-0.218750X-0.256250X0.218750X-0.256250X0*%
%TD*%
%TA.AperFunction,ComponentPad*%
%ADD13R,1.700000X1.700000*%
%TD*%
%TA.AperFunction,ComponentPad*%
%ADD14C,1.700000*%
%TD*%
%TA.AperFunction,SMDPad,CuDef*%
%ADD15RoundRect,0.218750X0.256250X-0.218750X0.256250X0.218750X-0.256250X0.218750X-0.256250X-0.218750X0*%
%TD*%
%TA.AperFunction,SMDPad,CuDef*%
%ADD16RoundRect,0.225000X-0.225000X-0.375000X0.225000X-0.375000X0.225000X0.375000X-0.225000X0.375000X0*%
%TD*%
%TA.AperFunction,SMDPad,CuDef*%
%ADD17RoundRect,0.250000X-1.100000X0.325000X-1.100000X-0.325000X1.100000X-0.325000X1.100000X0.325000X0*%
%TD*%
%TA.AperFunction,ViaPad*%
%ADD18C,0.600000*%
%TD*%
%TA.AperFunction,Conductor*%
%ADD19C,0.500000*%
%TD*%
G04 APERTURE END LIST*
D10*
%TO.P,U1,1,1-SW*%
%TO.N,Net-(D1-A)*%
X82225000Y-75050000D03*
%TO.P,U1,2,2-GND*%
%TO.N,GND*%
X82225000Y-76000000D03*
%TO.P,U1,3,3-FB*%
%TO.N,Net-(U1-3-FB)*%
X82225000Y-76950000D03*
%TO.P,U1,4,4-EN*%
%TO.N,VCC*%
X84500000Y-76950000D03*
%TO.P,U1,5,5-VIN*%
X84500000Y-76000000D03*
%TO.P,U1,6,6-OC*%
%TO.N,Net-(U1-6-OC)*%
X84500000Y-75050000D03*
%TD*%
D11*
%TO.P,R4,1*%
%TO.N,Net-(D2-K)*%
X68500000Y-92075000D03*
%TO.P,R4,2*%
%TO.N,GND*%
X68500000Y-95000000D03*
%TD*%
%TO.P,R3,1*%
%TO.N,Net-(U1-6-OC)*%
X91500000Y-71537500D03*
%TO.P,R3,2*%
%TO.N,GND*%
X91500000Y-74462500D03*
%TD*%
%TO.P,R2,1*%
%TO.N,Net-(U1-3-FB)*%
X75500000Y-81575000D03*
%TO.P,R2,2*%
%TO.N,GND*%
X75500000Y-84500000D03*
%TD*%
%TO.P,R1,1*%
%TO.N,+5V*%
X75500000Y-75075000D03*
%TO.P,R1,2*%
%TO.N,Net-(U1-3-FB)*%
X75500000Y-78000000D03*
%TD*%
D12*
%TO.P,L1,1,1*%
%TO.N,VCC*%
X85500000Y-67500000D03*
%TO.P,L1,2,2*%
%TO.N,Net-(D1-A)*%
X83925000Y-67500000D03*
%TD*%
D13*
%TO.P,J1,1,Pin_1*%
%TO.N,VCC*%
X63500000Y-76945000D03*
D14*
%TO.P,J1,2,Pin_2*%
%TO.N,GND*%
X63500000Y-79485000D03*
%TO.P,J1,3,Pin_3*%
%TO.N,+5V*%
X63500000Y-82025000D03*
%TD*%
D15*
%TO.P,D2,1,K*%
%TO.N,Net-(D2-K)*%
X68212500Y-88787500D03*
%TO.P,D2,2,A*%
%TO.N,+5V*%
X68212500Y-87212500D03*
%TD*%
D16*
%TO.P,D1,1,K*%
%TO.N,+5V*%
X76700000Y-67500000D03*
%TO.P,D1,2,A*%
%TO.N,Net-(D1-A)*%
X80000000Y-67500000D03*
%TD*%
D17*
%TO.P,C2,1*%
%TO.N,+5V*%
X71000000Y-67525000D03*
%TO.P,C2,2*%
%TO.N,GND*%
X71000000Y-70475000D03*
%TD*%
%TO.P,C1,1*%
%TO.N,VCC*%
X92500000Y-80500000D03*
%TO.P,C1,2*%
%TO.N,GND*%
X92500000Y-83450000D03*
%TD*%
D18*
%TO.N,VCC*%
X97250000Y-77000000D03*
%TO.N,+5V*%
X60500000Y-70250000D03*
%TD*%
D19*
%TO.N,VCC*%
X88000000Y-76000000D02*
X88950000Y-76950000D01*
X84500000Y-76000000D02*
X88000000Y-76000000D01*
X88950000Y-76950000D02*
X92500000Y-80500000D01*
X84500000Y-76950000D02*
X88950000Y-76950000D01*
X96000000Y-77000000D02*
X92500000Y-80500000D01*
X97250000Y-77000000D02*
X96000000Y-77000000D01*
%TO.N,+5V*%
X63225000Y-67525000D02*
X60500000Y-70250000D01*
X71000000Y-67525000D02*
X63225000Y-67525000D01*
X71025000Y-67500000D02*
X71000000Y-67525000D01*
X76700000Y-67500000D02*
X71025000Y-67500000D01*
X76700000Y-73875000D02*
X76700000Y-67500000D01*
X75500000Y-75075000D02*
X76700000Y-73875000D01*
%TO.N,Net-(U1-3-FB)*%
X75500000Y-78000000D02*
X75500000Y-81575000D01*
X76550000Y-76950000D02*
X75500000Y-78000000D01*
X82225000Y-76950000D02*
X76550000Y-76950000D01*
%TO.N,Net-(D1-A)*%
X83925000Y-73350000D02*
X83925000Y-67500000D01*
X82225000Y-75050000D02*
X83925000Y-73350000D01*
%TO.N,Net-(U1-6-OC)*%
X84500000Y-75050000D02*
X87987500Y-75050000D01*
X87987500Y-75050000D02*
X91500000Y-71537500D01*
%TO.N,Net-(D1-A)*%
X83925000Y-67500000D02*
X80000000Y-67500000D01*
%TO.N,+5V*%
X68212500Y-86737500D02*
X63500000Y-82025000D01*
X68212500Y-87212500D02*
X68212500Y-86737500D01*
%TD*%
%TA.AperFunction,Conductor*%
%TO.N,GND*%
G36*
X101344498Y-63219685D02*
G01*
X101390253Y-63272489D01*
X101401450Y-63322533D01*
X101798515Y-96874533D01*
X101779625Y-96941800D01*
X101727367Y-96988177D01*
X101674524Y-97000000D01*
X58324000Y-97000000D01*
X58256961Y-96980315D01*
X58211206Y-96927511D01*
X58200000Y-96876000D01*
X58200000Y-95362486D01*
X67125001Y-95362486D01*
X67135494Y-95465197D01*
X67190641Y-95631619D01*
X67190643Y-95631624D01*
X67282684Y-95780845D01*
X67406654Y-95904815D01*
X67555875Y-95996856D01*
X67555880Y-95996858D01*
X67722302Y-96052005D01*
X67722309Y-96052006D01*
X67825019Y-96062499D01*
X68249999Y-96062499D01*
X68750000Y-96062499D01*
X69174972Y-96062499D01*
X69174986Y-96062498D01*
X69277697Y-96052005D01*
X69444119Y-95996858D01*
X69444124Y-95996856D01*
X69593345Y-95904815D01*
X69717315Y-95780845D01*
X69809356Y-95631624D01*
X69809358Y-95631619D01*
X69864505Y-95465197D01*
X69864506Y-95465190D01*
X69874999Y-95362486D01*
X69875000Y-95362473D01*
X69875000Y-95250000D01*
X68750000Y-95250000D01*
X68750000Y-96062499D01*
X68249999Y-96062499D01*
X68250000Y-96062498D01*
X68250000Y-95250000D01*
X67125001Y-95250000D01*
X67125001Y-95362486D01*
X58200000Y-95362486D01*
X58200000Y-94637513D01*
X67125000Y-94637513D01*
X67125000Y-94750000D01*
X68250000Y-94750000D01*
X68750000Y-94750000D01*
X69874999Y-94750000D01*
X69874999Y-94637528D01*
X69874998Y-94637513D01*
X69864505Y-94534802D01*
X69809358Y-94368380D01*
X69809356Y-94368375D01*
X69717315Y-94219154D01*
X69593345Y-94095184D01*
X69444124Y-94003143D01*
X69444119Y-94003141D01*
X69277697Y-93947994D01*
X69277690Y-93947993D01*
X69174986Y-93937500D01*
X68750000Y-93937500D01*
X68750000Y-94750000D01*
X68250000Y-94750000D01*
X68250000Y-93937500D01*
X67825028Y-93937500D01*
X67825012Y-93937501D01*
X67722302Y-93947994D01*
X67555880Y-94003141D01*
X67555875Y-94003143D01*
X67406654Y-94095184D01*
X67282684Y-94219154D01*
X67190643Y-94368375D01*
X67190641Y-94368380D01*
X67135494Y-94534802D01*
X67135493Y-94534809D01*
X67125000Y-94637513D01*
X58200000Y-94637513D01*
X58200000Y-91688548D01*
X67024500Y-91688548D01*
X67024500Y-92461451D01*
X67027317Y-92502999D01*
X67071963Y-92682521D01*
X67071964Y-92682523D01*
X67154156Y-92848250D01*
X67270059Y-92992440D01*
X67352173Y-93058445D01*
X67414247Y-93108342D01*
X67579979Y-93190537D01*
X67759501Y-93235182D01*
X67759502Y-93235182D01*
X67759505Y-93235183D01*
X67801046Y-93238000D01*
X67801048Y-93238000D01*
X69198952Y-93238000D01*
X69198954Y-93238000D01*
X69240495Y-93235183D01*
X69420021Y-93190537D01*
X69585753Y-93108342D01*
X69729940Y-92992440D01*
X69845842Y-92848253D01*
X69928037Y-92682521D01*
X69972683Y-92502995D01*
X69975500Y-92461454D01*
X69975500Y-91688546D01*
X69972683Y-91647005D01*
X69928037Y-91467479D01*
X69845842Y-91301747D01*
X69795945Y-91239673D01*
X69729940Y-91157559D01*
X69627785Y-91075445D01*
X69585753Y-91041658D01*
X69585751Y-91041657D01*
X69585750Y-91041656D01*
X69420023Y-90959464D01*
X69420021Y-90959463D01*
X69240497Y-90914817D01*
X69240501Y-90914817D01*
X69209339Y-90912704D01*
X69198954Y-90912000D01*
X67801046Y-90912000D01*
X67789177Y-90912804D01*
X67759500Y-90914817D01*
X67579978Y-90959463D01*
X67579976Y-90959464D01*
X67414249Y-91041656D01*
X67270059Y-91157559D01*
X67154156Y-91301749D01*
X67071964Y-91467476D01*
X67071963Y-91467478D01*
X67027317Y-91647000D01*
X67024500Y-91688548D01*
X58200000Y-91688548D01*
X58200000Y-76055645D01*
X62049500Y-76055645D01*
X62049500Y-77834363D01*
X62064953Y-77951753D01*
X62064956Y-77951762D01*
X62125464Y-78097841D01*
X62221718Y-78223282D01*
X62347159Y-78319536D01*
X62493238Y-78380044D01*
X62610639Y-78395500D01*
X62712693Y-78395499D01*
X62779729Y-78415183D01*
X62800372Y-78431818D01*
X63370591Y-79002037D01*
X63307007Y-79019075D01*
X63192993Y-79084901D01*
X63099901Y-79177993D01*
X63034075Y-79292007D01*
X63017037Y-79355591D01*
X62384728Y-78723282D01*
X62384727Y-78723282D01*
X62345380Y-78777439D01*
X62248904Y-78966782D01*
X62183242Y-79168869D01*
X62183242Y-79168872D01*
X62150000Y-79378753D01*
X62150000Y-79591246D01*
X62183242Y-79801127D01*
X62183242Y-79801130D01*
X62248904Y-80003217D01*
X62345375Y-80192550D01*
X62384728Y-80246716D01*
X63017037Y-79614408D01*
X63034075Y-79677993D01*
X63099901Y-79792007D01*
X63192993Y-79885099D01*
X63307007Y-79950925D01*
X63370590Y-79967962D01*
X62738282Y-80600269D01*
X62738812Y-80607003D01*
X62770347Y-80647898D01*
X62776326Y-80717511D01*
X62743721Y-80779307D01*
X62727682Y-80793205D01*
X62555061Y-80918622D01*
X62393622Y-81080061D01*
X62259421Y-81264771D01*
X62155770Y-81468196D01*
X62085215Y-81685339D01*
X62049500Y-81910837D01*
X62049500Y-82139162D01*
X62085215Y-82364660D01*
X62155770Y-82581803D01*
X62233921Y-82735182D01*
X62259421Y-82785228D01*
X62393621Y-82969937D01*
X62555063Y-83131379D01*
X62739772Y-83265579D01*
X62835884Y-83314550D01*
X62943196Y-83369229D01*
X62943198Y-83369229D01*
X62943201Y-83369231D01*
X63059592Y-83407049D01*
X63160339Y-83439784D01*
X63385838Y-83475500D01*
X63385843Y-83475500D01*
X63614154Y-83475500D01*
X63614157Y-83475500D01*
X63667048Y-83467122D01*
X63736338Y-83476076D01*
X63774125Y-83501914D01*
X67103174Y-86830962D01*
X67136659Y-86892285D01*
X67138714Y-86932521D01*
X67137000Y-86947739D01*
X67137000Y-87477266D01*
X67152484Y-87614695D01*
X67152486Y-87614706D01*
X67213460Y-87788958D01*
X67213462Y-87788961D01*
X67304614Y-87934028D01*
X67323614Y-88001265D01*
X67304614Y-88065972D01*
X67213462Y-88211038D01*
X67213460Y-88211041D01*
X67152486Y-88385293D01*
X67152484Y-88385304D01*
X67137000Y-88522733D01*
X67137000Y-89052266D01*
X67152484Y-89189695D01*
X67152486Y-89189706D01*
X67213460Y-89363958D01*
X67213465Y-89363968D01*
X67311677Y-89520270D01*
X67311682Y-89520276D01*
X67442223Y-89650817D01*
X67442229Y-89650822D01*
X67598531Y-89749034D01*
X67598541Y-89749039D01*
X67772796Y-89810014D01*
X67772802Y-89810014D01*
X67772804Y-89810015D01*
X67816538Y-89814942D01*
X67910234Y-89825499D01*
X67910237Y-89825500D01*
X67910240Y-89825500D01*
X68514763Y-89825500D01*
X68514764Y-89825499D01*
X68652204Y-89810014D01*
X68826459Y-89749039D01*
X68826462Y-89749036D01*
X68826468Y-89749034D01*
X68982770Y-89650822D01*
X68982771Y-89650821D01*
X68982776Y-89650818D01*
X69113318Y-89520276D01*
X69113322Y-89520270D01*
X69211534Y-89363968D01*
X69211536Y-89363962D01*
X69211539Y-89363959D01*
X69272514Y-89189704D01*
X69288000Y-89052260D01*
X69288000Y-88522740D01*
X69272514Y-88385296D01*
X69211539Y-88211041D01*
X69120385Y-88065972D01*
X69101385Y-87998736D01*
X69120386Y-87934027D01*
X69211536Y-87788963D01*
X69211539Y-87788959D01*
X69272514Y-87614704D01*
X69288000Y-87477260D01*
X69288000Y-86947740D01*
X69277442Y-86854038D01*
X69272515Y-86810304D01*
X69272513Y-86810293D01*
X69211539Y-86636041D01*
X69211534Y-86636031D01*
X69113322Y-86479729D01*
X69113317Y-86479723D01*
X68977852Y-86344258D01*
X68978114Y-86343995D01*
X68957391Y-86321448D01*
X68873127Y-86195339D01*
X68873126Y-86195338D01*
X68754662Y-86076874D01*
X67540275Y-84862486D01*
X74125001Y-84862486D01*
X74135494Y-84965197D01*
X74190641Y-85131619D01*
X74190643Y-85131624D01*
X74282684Y-85280845D01*
X74406654Y-85404815D01*
X74555875Y-85496856D01*
X74555880Y-85496858D01*
X74722302Y-85552005D01*
X74722309Y-85552006D01*
X74825019Y-85562499D01*
X75249999Y-85562499D01*
X75750000Y-85562499D01*
X76174972Y-85562499D01*
X76174986Y-85562498D01*
X76277697Y-85552005D01*
X76444119Y-85496858D01*
X76444124Y-85496856D01*
X76593345Y-85404815D01*
X76717315Y-85280845D01*
X76809356Y-85131624D01*
X76809358Y-85131619D01*
X76864505Y-84965197D01*
X76864506Y-84965190D01*
X76874999Y-84862486D01*
X76875000Y-84862473D01*
X76875000Y-84750000D01*
X75750000Y-84750000D01*
X75750000Y-85562499D01*
X75249999Y-85562499D01*
X75250000Y-85562498D01*
X75250000Y-84750000D01*
X74125001Y-84750000D01*
X74125001Y-84862486D01*
X67540275Y-84862486D01*
X66815302Y-84137513D01*
X74125000Y-84137513D01*
X74125000Y-84250000D01*
X75250000Y-84250000D01*
X75750000Y-84250000D01*
X76874999Y-84250000D01*
X76874999Y-84137528D01*
X76874998Y-84137513D01*
X76864505Y-84034802D01*
X76809358Y-83868380D01*
X76809356Y-83868375D01*
X76782593Y-83824986D01*
X90650001Y-83824986D01*
X90660494Y-83927697D01*
X90715641Y-84094119D01*
X90715643Y-84094124D01*
X90807684Y-84243345D01*
X90931654Y-84367315D01*
X91080875Y-84459356D01*
X91080880Y-84459358D01*
X91247302Y-84514505D01*
X91247309Y-84514506D01*
X91350019Y-84524999D01*
X92249999Y-84524999D01*
X92750000Y-84524999D01*
X93649972Y-84524999D01*
X93649986Y-84524998D01*
X93752697Y-84514505D01*
X93919119Y-84459358D01*
X93919124Y-84459356D01*
X94068345Y-84367315D01*
X94192315Y-84243345D01*
X94284356Y-84094124D01*
X94284358Y-84094119D01*
X94339505Y-83927697D01*
X94339506Y-83927690D01*
X94349999Y-83824986D01*
X94350000Y-83824973D01*
X94350000Y-83700000D01*
X92750000Y-83700000D01*
X92750000Y-84524999D01*
X92249999Y-84524999D01*
X92250000Y-84524998D01*
X92250000Y-83700000D01*
X90650001Y-83700000D01*
X90650001Y-83824986D01*
X76782593Y-83824986D01*
X76717316Y-83719155D01*
X76593345Y-83595184D01*
X76444124Y-83503143D01*
X76444119Y-83503141D01*
X76277697Y-83447994D01*
X76277690Y-83447993D01*
X76174986Y-83437500D01*
X75750000Y-83437500D01*
X75750000Y-84250000D01*
X75250000Y-84250000D01*
X75250000Y-83437500D01*
X74825028Y-83437500D01*
X74825012Y-83437501D01*
X74722302Y-83447994D01*
X74555880Y-83503141D01*
X74555875Y-83503143D01*
X74406654Y-83595184D01*
X74282684Y-83719154D01*
X74190643Y-83868375D01*
X74190641Y-83868380D01*
X74135494Y-84034802D01*
X74135493Y-84034809D01*
X74125000Y-84137513D01*
X66815302Y-84137513D01*
X65752802Y-83075013D01*
X90650000Y-83075013D01*
X90650000Y-83200000D01*
X92250000Y-83200000D01*
X92750000Y-83200000D01*
X94349999Y-83200000D01*
X94349999Y-83075028D01*
X94349998Y-83075013D01*
X94339505Y-82972302D01*
X94284358Y-82805880D01*
X94284356Y-82805875D01*
X94192315Y-82656654D01*
X94068345Y-82532684D01*
X93919124Y-82440643D01*
X93919119Y-82440641D01*
X93752697Y-82385494D01*
X93752690Y-82385493D01*
X93649986Y-82375000D01*
X92750000Y-82375000D01*
X92750000Y-83200000D01*
X92250000Y-83200000D01*
X92250000Y-82375000D01*
X91350028Y-82375000D01*
X91350012Y-82375001D01*
X91247302Y-82385494D01*
X91080880Y-82440641D01*
X91080875Y-82440643D01*
X90931654Y-82532684D01*
X90807684Y-82656654D01*
X90715643Y-82805875D01*
X90715641Y-82805880D01*
X90660494Y-82972302D01*
X90660493Y-82972309D01*
X90650000Y-83075013D01*
X65752802Y-83075013D01*
X64976914Y-82299125D01*
X64943429Y-82237802D01*
X64942122Y-82192051D01*
X64950500Y-82139157D01*
X64950500Y-81910843D01*
X64950500Y-81910837D01*
X64914784Y-81685339D01*
X64882049Y-81584592D01*
X64844231Y-81468201D01*
X64844229Y-81468198D01*
X64844229Y-81468196D01*
X64751269Y-81285753D01*
X64740579Y-81264772D01*
X64606379Y-81080063D01*
X64444937Y-80918621D01*
X64272317Y-80793204D01*
X64229652Y-80737873D01*
X64223673Y-80668260D01*
X64256279Y-80606465D01*
X64261591Y-80601861D01*
X64261717Y-80600270D01*
X63629408Y-79967962D01*
X63692993Y-79950925D01*
X63807007Y-79885099D01*
X63900099Y-79792007D01*
X63965925Y-79677993D01*
X63982962Y-79614409D01*
X64615270Y-80246717D01*
X64615270Y-80246716D01*
X64654622Y-80192554D01*
X64751095Y-80003217D01*
X64816757Y-79801130D01*
X64816757Y-79801127D01*
X64850000Y-79591246D01*
X64850000Y-79378753D01*
X64816757Y-79168872D01*
X64816757Y-79168869D01*
X64751095Y-78966782D01*
X64654624Y-78777449D01*
X64615270Y-78723282D01*
X64615269Y-78723282D01*
X63982962Y-79355590D01*
X63965925Y-79292007D01*
X63900099Y-79177993D01*
X63807007Y-79084901D01*
X63692993Y-79019075D01*
X63629409Y-79002037D01*
X64199627Y-78431818D01*
X64260950Y-78398333D01*
X64287307Y-78395499D01*
X64389360Y-78395499D01*
X64389363Y-78395499D01*
X64506753Y-78380046D01*
X64506757Y-78380044D01*
X64506762Y-78380044D01*
X64652841Y-78319536D01*
X64778282Y-78223282D01*
X64874536Y-78097841D01*
X64935044Y-77951762D01*
X64950500Y-77834361D01*
X64950499Y-76055640D01*
X64950499Y-76055639D01*
X64950499Y-76055636D01*
X64935046Y-75938246D01*
X64935044Y-75938239D01*
X64935044Y-75938238D01*
X64874536Y-75792159D01*
X64778282Y-75666718D01*
X64652841Y-75570464D01*
X64529402Y-75519334D01*
X64506762Y-75509956D01*
X64506760Y-75509955D01*
X64389370Y-75494501D01*
X64389367Y-75494500D01*
X64389361Y-75494500D01*
X64389354Y-75494500D01*
X62610636Y-75494500D01*
X62493246Y-75509953D01*
X62493237Y-75509956D01*
X62347160Y-75570463D01*
X62221718Y-75666718D01*
X62125463Y-75792160D01*
X62064956Y-75938237D01*
X62064955Y-75938239D01*
X62050308Y-76049500D01*
X62049501Y-76055636D01*
X62049500Y-76055645D01*
X58200000Y-76055645D01*
X58200000Y-70161304D01*
X59599500Y-70161304D01*
X59599500Y-70338695D01*
X59634103Y-70512658D01*
X59634106Y-70512667D01*
X59701983Y-70676540D01*
X59701990Y-70676553D01*
X59800535Y-70824034D01*
X59800538Y-70824038D01*
X59925961Y-70949461D01*
X59925965Y-70949464D01*
X60073446Y-71048009D01*
X60073459Y-71048016D01*
X60196363Y-71098923D01*
X60237334Y-71115894D01*
X60237336Y-71115894D01*
X60237341Y-71115896D01*
X60411304Y-71150499D01*
X60411307Y-71150500D01*
X60411309Y-71150500D01*
X60588693Y-71150500D01*
X60588694Y-71150499D01*
X60646682Y-71138964D01*
X60762658Y-71115896D01*
X60762661Y-71115894D01*
X60762666Y-71115894D01*
X60926547Y-71048013D01*
X61074035Y-70949464D01*
X61173513Y-70849986D01*
X69150001Y-70849986D01*
X69160494Y-70952697D01*
X69215641Y-71119119D01*
X69215643Y-71119124D01*
X69307684Y-71268345D01*
X69431654Y-71392315D01*
X69580875Y-71484356D01*
X69580880Y-71484358D01*
X69747302Y-71539505D01*
X69747309Y-71539506D01*
X69850019Y-71549999D01*
X70749999Y-71549999D01*
X71250000Y-71549999D01*
X72149972Y-71549999D01*
X72149986Y-71549998D01*
X72252697Y-71539505D01*
X72419119Y-71484358D01*
X72419124Y-71484356D01*
X72568345Y-71392315D01*
X72692315Y-71268345D01*
X72784356Y-71119124D01*
X72784358Y-71119119D01*
X72839505Y-70952697D01*
X72839506Y-70952690D01*
X72849999Y-70849986D01*
X72850000Y-70849973D01*
X72850000Y-70725000D01*
X71250000Y-70725000D01*
X71250000Y-71549999D01*
X70749999Y-71549999D01*
X70750000Y-71549998D01*
X70750000Y-70725000D01*
X69150001Y-70725000D01*
X69150001Y-70849986D01*
X61173513Y-70849986D01*
X61199464Y-70824035D01*
X61298013Y-70676547D01*
X61303968Y-70662167D01*
X61308600Y-70655235D01*
X61309698Y-70650192D01*
X61330845Y-70621942D01*
X61852774Y-70100013D01*
X69150000Y-70100013D01*
X69150000Y-70225000D01*
X70750000Y-70225000D01*
X71250000Y-70225000D01*
X72849999Y-70225000D01*
X72849999Y-70100028D01*
X72849998Y-70100013D01*
X72839505Y-69997302D01*
X72784358Y-69830880D01*
X72784356Y-69830875D01*
X72692315Y-69681654D01*
X72568345Y-69557684D01*
X72419124Y-69465643D01*
X72419119Y-69465641D01*
X72252697Y-69410494D01*
X72252690Y-69410493D01*
X72149986Y-69400000D01*
X71250000Y-69400000D01*
X71250000Y-70225000D01*
X70750000Y-70225000D01*
X70750000Y-69400000D01*
X69850028Y-69400000D01*
X69850012Y-69400001D01*
X69747302Y-69410494D01*
X69580880Y-69465641D01*
X69580875Y-69465643D01*
X69431654Y-69557684D01*
X69307684Y-69681654D01*
X69215643Y-69830875D01*
X69215641Y-69830880D01*
X69160494Y-69997302D01*
X69160493Y-69997309D01*
X69150000Y-70100013D01*
X61852774Y-70100013D01*
X63540970Y-68411819D01*
X63602293Y-68378334D01*
X63628651Y-68375500D01*
X69171785Y-68375500D01*
X69238824Y-68395185D01*
X69268428Y-68421808D01*
X69295060Y-68454940D01*
X69295062Y-68454942D01*
X69304042Y-68462160D01*
X69439247Y-68570842D01*
X69604979Y-68653037D01*
X69784501Y-68697682D01*
X69784502Y-68697682D01*
X69784505Y-68697683D01*
X69826046Y-68700500D01*
X69826048Y-68700500D01*
X72173952Y-68700500D01*
X72173954Y-68700500D01*
X72215495Y-68697683D01*
X72395021Y-68653037D01*
X72560753Y-68570842D01*
X72704940Y-68454940D01*
X72730623Y-68422989D01*
X72751666Y-68396812D01*
X72809009Y-68356893D01*
X72848312Y-68350500D01*
X75725500Y-68350500D01*
X75792539Y-68370185D01*
X75838294Y-68422989D01*
X75849500Y-68474500D01*
X75849500Y-73471349D01*
X75829815Y-73538388D01*
X75813181Y-73559030D01*
X75496530Y-73875681D01*
X75435207Y-73909166D01*
X75408849Y-73912000D01*
X74801046Y-73912000D01*
X74789177Y-73912804D01*
X74759500Y-73914817D01*
X74579978Y-73959463D01*
X74579976Y-73959464D01*
X74414249Y-74041656D01*
X74270059Y-74157559D01*
X74154156Y-74301749D01*
X74071964Y-74467476D01*
X74071963Y-74467478D01*
X74027317Y-74647000D01*
X74024500Y-74688548D01*
X74024500Y-75461451D01*
X74027317Y-75502999D01*
X74071963Y-75682521D01*
X74071964Y-75682523D01*
X74154156Y-75848250D01*
X74270059Y-75992440D01*
X74348682Y-76055639D01*
X74414247Y-76108342D01*
X74579979Y-76190537D01*
X74759501Y-76235182D01*
X74759502Y-76235182D01*
X74759505Y-76235183D01*
X74801046Y-76238000D01*
X75759849Y-76238000D01*
X75826888Y-76257685D01*
X75872643Y-76310489D01*
X75882587Y-76379647D01*
X75853562Y-76443203D01*
X75847530Y-76449681D01*
X75496531Y-76800681D01*
X75435208Y-76834166D01*
X75408850Y-76837000D01*
X74801046Y-76837000D01*
X74789177Y-76837804D01*
X74759500Y-76839817D01*
X74579978Y-76884463D01*
X74579976Y-76884464D01*
X74414249Y-76966656D01*
X74270059Y-77082559D01*
X74154156Y-77226749D01*
X74071964Y-77392476D01*
X74071963Y-77392478D01*
X74027317Y-77572000D01*
X74027317Y-77572005D01*
X74024500Y-77613546D01*
X74024500Y-78386454D01*
X74025306Y-78398333D01*
X74027317Y-78427999D01*
X74071963Y-78607521D01*
X74071964Y-78607523D01*
X74154156Y-78773250D01*
X74270059Y-78917440D01*
X74366952Y-78995325D01*
X74414247Y-79033342D01*
X74579979Y-79115537D01*
X74579987Y-79115539D01*
X74580594Y-79115840D01*
X74631907Y-79163261D01*
X74649500Y-79226929D01*
X74649500Y-80348069D01*
X74629815Y-80415108D01*
X74580595Y-80459157D01*
X74414247Y-80541657D01*
X74270059Y-80657559D01*
X74154156Y-80801749D01*
X74071964Y-80967476D01*
X74071963Y-80967478D01*
X74027317Y-81147000D01*
X74024500Y-81188548D01*
X74024500Y-81961451D01*
X74027317Y-82002999D01*
X74071963Y-82182521D01*
X74071964Y-82182523D01*
X74154156Y-82348250D01*
X74154157Y-82348251D01*
X74154158Y-82348253D01*
X74187945Y-82390285D01*
X74270059Y-82492440D01*
X74320125Y-82532684D01*
X74414247Y-82608342D01*
X74579979Y-82690537D01*
X74759501Y-82735182D01*
X74759502Y-82735182D01*
X74759505Y-82735183D01*
X74801046Y-82738000D01*
X74801048Y-82738000D01*
X76198952Y-82738000D01*
X76198954Y-82738000D01*
X76240495Y-82735183D01*
X76420021Y-82690537D01*
X76585753Y-82608342D01*
X76729940Y-82492440D01*
X76845842Y-82348253D01*
X76928037Y-82182521D01*
X76972683Y-82002995D01*
X76975500Y-81961454D01*
X76975500Y-81188546D01*
X76972683Y-81147005D01*
X76928037Y-80967479D01*
X76845842Y-80801747D01*
X76794498Y-80737873D01*
X76729940Y-80657559D01*
X76585752Y-80541657D01*
X76419405Y-80459157D01*
X76368093Y-80411736D01*
X76350500Y-80348069D01*
X76350500Y-79226929D01*
X76370185Y-79159890D01*
X76419406Y-79115840D01*
X76420012Y-79115539D01*
X76420021Y-79115537D01*
X76585753Y-79033342D01*
X76729940Y-78917440D01*
X76845842Y-78773253D01*
X76928037Y-78607521D01*
X76972683Y-78427995D01*
X76975500Y-78386454D01*
X76975500Y-77924500D01*
X76995185Y-77857461D01*
X77047989Y-77811706D01*
X77099500Y-77800500D01*
X81420493Y-77800500D01*
X81459497Y-77806794D01*
X81559703Y-77839999D01*
X81662491Y-77850500D01*
X82787508Y-77850499D01*
X82890297Y-77839999D01*
X83056834Y-77784814D01*
X83206156Y-77692712D01*
X83274819Y-77624049D01*
X83336142Y-77590564D01*
X83405834Y-77595548D01*
X83450181Y-77624049D01*
X83518844Y-77692712D01*
X83668166Y-77784814D01*
X83834703Y-77839999D01*
X83937491Y-77850500D01*
X85062508Y-77850499D01*
X85165297Y-77839999D01*
X85265503Y-77806794D01*
X85304507Y-77800500D01*
X88546349Y-77800500D01*
X88613388Y-77820185D01*
X88634030Y-77836819D01*
X90563368Y-79766157D01*
X90596853Y-79827480D01*
X90596022Y-79883764D01*
X90552317Y-80059500D01*
X90549500Y-80101048D01*
X90549500Y-80898951D01*
X90552317Y-80940499D01*
X90596963Y-81120021D01*
X90596964Y-81120023D01*
X90679156Y-81285750D01*
X90795059Y-81429940D01*
X90842652Y-81468196D01*
X90939247Y-81545842D01*
X91104979Y-81628037D01*
X91284501Y-81672682D01*
X91284502Y-81672682D01*
X91284505Y-81672683D01*
X91326046Y-81675500D01*
X91326048Y-81675500D01*
X93673952Y-81675500D01*
X93673954Y-81675500D01*
X93715495Y-81672683D01*
X93895021Y-81628037D01*
X94060753Y-81545842D01*
X94204940Y-81429940D01*
X94320842Y-81285753D01*
X94403037Y-81120021D01*
X94447683Y-80940495D01*
X94450500Y-80898954D01*
X94450500Y-80101046D01*
X94447683Y-80059505D01*
X94403977Y-79883759D01*
X94406901Y-79813955D01*
X94436629Y-79766158D01*
X96315969Y-77886819D01*
X96377292Y-77853334D01*
X96403650Y-77850500D01*
X96925505Y-77850500D01*
X96972953Y-77859937D01*
X96987334Y-77865894D01*
X96987338Y-77865894D01*
X96987341Y-77865896D01*
X97161304Y-77900499D01*
X97161307Y-77900500D01*
X97161309Y-77900500D01*
X97338693Y-77900500D01*
X97338694Y-77900499D01*
X97407470Y-77886819D01*
X97512658Y-77865896D01*
X97512661Y-77865894D01*
X97512666Y-77865894D01*
X97676547Y-77798013D01*
X97824035Y-77699464D01*
X97949464Y-77574035D01*
X98048013Y-77426547D01*
X98115894Y-77262666D01*
X98123039Y-77226749D01*
X98150499Y-77088695D01*
X98150500Y-77088693D01*
X98150500Y-76911306D01*
X98150499Y-76911304D01*
X98115896Y-76737341D01*
X98115893Y-76737332D01*
X98048016Y-76573459D01*
X98048009Y-76573446D01*
X97949464Y-76425965D01*
X97949461Y-76425961D01*
X97824038Y-76300538D01*
X97824034Y-76300535D01*
X97676553Y-76201990D01*
X97676540Y-76201983D01*
X97512667Y-76134106D01*
X97512658Y-76134103D01*
X97338694Y-76099500D01*
X97338691Y-76099500D01*
X97161309Y-76099500D01*
X97161306Y-76099500D01*
X96987341Y-76134103D01*
X96987337Y-76134105D01*
X96987335Y-76134105D01*
X96987334Y-76134106D01*
X96972953Y-76140062D01*
X96925505Y-76149500D01*
X95916228Y-76149500D01*
X95751925Y-76182182D01*
X95751917Y-76182184D01*
X95617168Y-76238000D01*
X95597133Y-76246298D01*
X95457838Y-76339373D01*
X95457834Y-76339376D01*
X92587680Y-79209530D01*
X92526357Y-79243015D01*
X92456665Y-79238031D01*
X92412318Y-79209530D01*
X90987602Y-77784814D01*
X89492162Y-76289373D01*
X88809219Y-75606430D01*
X88775734Y-75545107D01*
X88780718Y-75475415D01*
X88809219Y-75431068D01*
X89415301Y-74824986D01*
X90125001Y-74824986D01*
X90135494Y-74927697D01*
X90190641Y-75094119D01*
X90190643Y-75094124D01*
X90282684Y-75243345D01*
X90406654Y-75367315D01*
X90555875Y-75459356D01*
X90555880Y-75459358D01*
X90722302Y-75514505D01*
X90722309Y-75514506D01*
X90825019Y-75524999D01*
X91249999Y-75524999D01*
X91750000Y-75524999D01*
X92174972Y-75524999D01*
X92174986Y-75524998D01*
X92277697Y-75514505D01*
X92444119Y-75459358D01*
X92444124Y-75459356D01*
X92593345Y-75367315D01*
X92717315Y-75243345D01*
X92809356Y-75094124D01*
X92809358Y-75094119D01*
X92864505Y-74927697D01*
X92864506Y-74927690D01*
X92874999Y-74824986D01*
X92875000Y-74824973D01*
X92875000Y-74712500D01*
X91750000Y-74712500D01*
X91750000Y-75524999D01*
X91249999Y-75524999D01*
X91250000Y-75524998D01*
X91250000Y-74712500D01*
X90125001Y-74712500D01*
X90125001Y-74824986D01*
X89415301Y-74824986D01*
X89991468Y-74248819D01*
X90052791Y-74215334D01*
X90079149Y-74212500D01*
X91250000Y-74212500D01*
X91750000Y-74212500D01*
X92874999Y-74212500D01*
X92874999Y-74100028D01*
X92874998Y-74100013D01*
X92864505Y-73997302D01*
X92809358Y-73830880D01*
X92809356Y-73830875D01*
X92717315Y-73681654D01*
X92593345Y-73557684D01*
X92444124Y-73465643D01*
X92444119Y-73465641D01*
X92277697Y-73410494D01*
X92277690Y-73410493D01*
X92174986Y-73400000D01*
X91750000Y-73400000D01*
X91750000Y-74212500D01*
X91250000Y-74212500D01*
X91250000Y-73440023D01*
X91102938Y-73394441D01*
X91088842Y-73385081D01*
X91072610Y-73380315D01*
X91060341Y-73366156D01*
X91044731Y-73355791D01*
X91037933Y-73340295D01*
X91026855Y-73327511D01*
X91024188Y-73308966D01*
X91016661Y-73291808D01*
X91019318Y-73275099D01*
X91016911Y-73258353D01*
X91024694Y-73241309D01*
X91027638Y-73222806D01*
X91038907Y-73210186D01*
X91045936Y-73194797D01*
X91051956Y-73188331D01*
X91503469Y-72736819D01*
X91564792Y-72703334D01*
X91591150Y-72700500D01*
X92198952Y-72700500D01*
X92198954Y-72700500D01*
X92240495Y-72697683D01*
X92420021Y-72653037D01*
X92585753Y-72570842D01*
X92729940Y-72454940D01*
X92845842Y-72310753D01*
X92928037Y-72145021D01*
X92972683Y-71965495D01*
X92975500Y-71923954D01*
X92975500Y-71151046D01*
X92972683Y-71109505D01*
X92928037Y-70929979D01*
X92845842Y-70764247D01*
X92775342Y-70676542D01*
X92729940Y-70620059D01*
X92627785Y-70537945D01*
X92585753Y-70504158D01*
X92585751Y-70504157D01*
X92585750Y-70504156D01*
X92420023Y-70421964D01*
X92420021Y-70421963D01*
X92240497Y-70377317D01*
X92240501Y-70377317D01*
X92209339Y-70375204D01*
X92198954Y-70374500D01*
X90801046Y-70374500D01*
X90789177Y-70375304D01*
X90759500Y-70377317D01*
X90579978Y-70421963D01*
X90579976Y-70421964D01*
X90414249Y-70504156D01*
X90270059Y-70620059D01*
X90154156Y-70764249D01*
X90071964Y-70929976D01*
X90071963Y-70929978D01*
X90027317Y-71109500D01*
X90024500Y-71151048D01*
X90024500Y-71758849D01*
X90004815Y-71825888D01*
X89988181Y-71846530D01*
X87671530Y-74163181D01*
X87610207Y-74196666D01*
X87583849Y-74199500D01*
X85304507Y-74199500D01*
X85265503Y-74193206D01*
X85263528Y-74192551D01*
X85165297Y-74160001D01*
X85165295Y-74160000D01*
X85062516Y-74149500D01*
X85062509Y-74149500D01*
X84627650Y-74149500D01*
X84560611Y-74129815D01*
X84514856Y-74077011D01*
X84504912Y-74007853D01*
X84533937Y-73944297D01*
X84539969Y-73937819D01*
X84546848Y-73930939D01*
X84585626Y-73892162D01*
X84678704Y-73752863D01*
X84742816Y-73598081D01*
X84750852Y-73557684D01*
X84769160Y-73465641D01*
X84775500Y-73433767D01*
X84775500Y-73266233D01*
X84775500Y-68621998D01*
X84795185Y-68554959D01*
X84847989Y-68509204D01*
X84917147Y-68499260D01*
X84940450Y-68504955D01*
X85097796Y-68560014D01*
X85097802Y-68560014D01*
X85097804Y-68560015D01*
X85141538Y-68564942D01*
X85235234Y-68575499D01*
X85235237Y-68575500D01*
X85235240Y-68575500D01*
X85764763Y-68575500D01*
X85764764Y-68575499D01*
X85902204Y-68560014D01*
X86076459Y-68499039D01*
X86076462Y-68499036D01*
X86076468Y-68499034D01*
X86232770Y-68400822D01*
X86232771Y-68400821D01*
X86232776Y-68400818D01*
X86363318Y-68270276D01*
X86363322Y-68270270D01*
X86461534Y-68113968D01*
X86461536Y-68113962D01*
X86461539Y-68113959D01*
X86522514Y-67939704D01*
X86538000Y-67802260D01*
X86538000Y-67197740D01*
X86522514Y-67060296D01*
X86461539Y-66886041D01*
X86461534Y-66886031D01*
X86363322Y-66729729D01*
X86363317Y-66729723D01*
X86232776Y-66599182D01*
X86232770Y-66599177D01*
X86076468Y-66500965D01*
X86076458Y-66500960D01*
X85902206Y-66439986D01*
X85902195Y-66439984D01*
X85764766Y-66424500D01*
X85764760Y-66424500D01*
X85235240Y-66424500D01*
X85235233Y-66424500D01*
X85097804Y-66439984D01*
X85097793Y-66439986D01*
X84923541Y-66500960D01*
X84923538Y-66500962D01*
X84778472Y-66592114D01*
X84711235Y-66611114D01*
X84646528Y-66592114D01*
X84501461Y-66500962D01*
X84501458Y-66500960D01*
X84327206Y-66439986D01*
X84327195Y-66439984D01*
X84189766Y-66424500D01*
X84189760Y-66424500D01*
X83660240Y-66424500D01*
X83660233Y-66424500D01*
X83522804Y-66439984D01*
X83522793Y-66439986D01*
X83348541Y-66500960D01*
X83348531Y-66500965D01*
X83192229Y-66599177D01*
X83192223Y-66599182D01*
X83178225Y-66613181D01*
X83116902Y-66646666D01*
X83090544Y-66649500D01*
X80961333Y-66649500D01*
X80894294Y-66629815D01*
X80864686Y-66603188D01*
X80858155Y-66595063D01*
X80812159Y-66537841D01*
X80672210Y-66425347D01*
X80672209Y-66425346D01*
X80511350Y-66345567D01*
X80337102Y-66302234D01*
X80337103Y-66302234D01*
X80312910Y-66300593D01*
X80296784Y-66299500D01*
X79703216Y-66299500D01*
X79687089Y-66300593D01*
X79662897Y-66302234D01*
X79488649Y-66345567D01*
X79327790Y-66425346D01*
X79187841Y-66537840D01*
X79187840Y-66537841D01*
X79075346Y-66677790D01*
X78995567Y-66838649D01*
X78952234Y-67012897D01*
X78949500Y-67053218D01*
X78949500Y-67946781D01*
X78952234Y-67987102D01*
X78995567Y-68161350D01*
X79075346Y-68322209D01*
X79149500Y-68414460D01*
X79187841Y-68462159D01*
X79327790Y-68574653D01*
X79488651Y-68654433D01*
X79662900Y-68697766D01*
X79703216Y-68700500D01*
X79703218Y-68700500D01*
X80296782Y-68700500D01*
X80296784Y-68700500D01*
X80337100Y-68697766D01*
X80511349Y-68654433D01*
X80672210Y-68574653D01*
X80812159Y-68462159D01*
X80864686Y-68396811D01*
X80922029Y-68356894D01*
X80961333Y-68350500D01*
X82950500Y-68350500D01*
X83017539Y-68370185D01*
X83063294Y-68422989D01*
X83074500Y-68474500D01*
X83074500Y-72946348D01*
X83054815Y-73013387D01*
X83038181Y-73034029D01*
X81959028Y-74113181D01*
X81897705Y-74146666D01*
X81871348Y-74149500D01*
X81662499Y-74149500D01*
X81662480Y-74149501D01*
X81559703Y-74160000D01*
X81559700Y-74160001D01*
X81393168Y-74215185D01*
X81393163Y-74215187D01*
X81243842Y-74307289D01*
X81119789Y-74431342D01*
X81027687Y-74580663D01*
X81027686Y-74580666D01*
X80972501Y-74747203D01*
X80972501Y-74747204D01*
X80972500Y-74747204D01*
X80962000Y-74849983D01*
X80962000Y-75250001D01*
X80962001Y-75250019D01*
X80972500Y-75352796D01*
X80972501Y-75352799D01*
X81027685Y-75519331D01*
X81027689Y-75519340D01*
X81069496Y-75587120D01*
X81087936Y-75654512D01*
X81083034Y-75686809D01*
X81065399Y-75747509D01*
X81065204Y-75749999D01*
X81065205Y-75750000D01*
X81149770Y-75750000D01*
X81216809Y-75769685D01*
X81217941Y-75770421D01*
X81228507Y-75777375D01*
X81243844Y-75792712D01*
X81370623Y-75870909D01*
X81372160Y-75871921D01*
X81393612Y-75897229D01*
X81415810Y-75921909D01*
X81416113Y-75923775D01*
X81417338Y-75925220D01*
X81421701Y-75958113D01*
X81427033Y-75990871D01*
X81426278Y-75992607D01*
X81426527Y-75994482D01*
X81412419Y-76024503D01*
X81399189Y-76054954D01*
X81397616Y-76056006D01*
X81396812Y-76057718D01*
X81368718Y-76075343D01*
X81341121Y-76093810D01*
X81338689Y-76094182D01*
X81337626Y-76094850D01*
X81334552Y-76094816D01*
X81303989Y-76099500D01*
X76902652Y-76099500D01*
X76835613Y-76079815D01*
X76789858Y-76027011D01*
X76779914Y-75957853D01*
X76806005Y-75897812D01*
X76816453Y-75884814D01*
X76845842Y-75848253D01*
X76928037Y-75682521D01*
X76972683Y-75502995D01*
X76975500Y-75461454D01*
X76975500Y-74853650D01*
X76995185Y-74786611D01*
X77011819Y-74765969D01*
X77360620Y-74417168D01*
X77360626Y-74417162D01*
X77453704Y-74277863D01*
X77499286Y-74167816D01*
X77517816Y-74123082D01*
X77550500Y-73958767D01*
X77550500Y-68458118D01*
X77570185Y-68391079D01*
X77577842Y-68380444D01*
X77624653Y-68322210D01*
X77704433Y-68161349D01*
X77747766Y-67987100D01*
X77750500Y-67946784D01*
X77750500Y-67053216D01*
X77747766Y-67012900D01*
X77704433Y-66838651D01*
X77624653Y-66677790D01*
X77512159Y-66537841D01*
X77466280Y-66500962D01*
X77372209Y-66425346D01*
X77211350Y-66345567D01*
X77037102Y-66302234D01*
X77037103Y-66302234D01*
X77012910Y-66300593D01*
X76996784Y-66299500D01*
X76403216Y-66299500D01*
X76387089Y-66300593D01*
X76362897Y-66302234D01*
X76188649Y-66345567D01*
X76027790Y-66425346D01*
X75887843Y-66537839D01*
X75887841Y-66537841D01*
X75841845Y-66595063D01*
X75835314Y-66603188D01*
X75777971Y-66643106D01*
X75738667Y-66649500D01*
X72808120Y-66649500D01*
X72741081Y-66629815D01*
X72711471Y-66603185D01*
X72704943Y-66595063D01*
X72704941Y-66595061D01*
X72633756Y-66537840D01*
X72560753Y-66479158D01*
X72560751Y-66479157D01*
X72560750Y-66479156D01*
X72395023Y-66396964D01*
X72395021Y-66396963D01*
X72215497Y-66352317D01*
X72215501Y-66352317D01*
X72184339Y-66350204D01*
X72173954Y-66349500D01*
X69826046Y-66349500D01*
X69814177Y-66350304D01*
X69784500Y-66352317D01*
X69604978Y-66396963D01*
X69604976Y-66396964D01*
X69439249Y-66479156D01*
X69295063Y-66595057D01*
X69295061Y-66595058D01*
X69295060Y-66595060D01*
X69268429Y-66628189D01*
X69211089Y-66668106D01*
X69171785Y-66674500D01*
X63141228Y-66674500D01*
X62976925Y-66707182D01*
X62976913Y-66707185D01*
X62931583Y-66725962D01*
X62822143Y-66771292D01*
X62822130Y-66771299D01*
X62682838Y-66864372D01*
X62682834Y-66864375D01*
X60128058Y-69419151D01*
X60087836Y-69446029D01*
X60073452Y-69451987D01*
X59925965Y-69550535D01*
X59925961Y-69550538D01*
X59800538Y-69675961D01*
X59800535Y-69675965D01*
X59701990Y-69823446D01*
X59701983Y-69823459D01*
X59634106Y-69987332D01*
X59634103Y-69987341D01*
X59599500Y-70161304D01*
X58200000Y-70161304D01*
X58200000Y-63324000D01*
X58219685Y-63256961D01*
X58272489Y-63211206D01*
X58324000Y-63200000D01*
X101277459Y-63200000D01*
X101344498Y-63219685D01*
G37*
%TD.AperFunction*%
%TD*%
M02*
