%TF.GenerationSoftware,KiCad,Pcbnew,9.0.2*%
%TF.CreationDate,2025-05-31T23:28:22-05:00*%
%TF.ProjectId,ME433_Proj,4d453433-335f-4507-926f-6a2e6b696361,rev?*%
%TF.SameCoordinates,Original*%
%TF.FileFunction,Legend,Top*%
%TF.FilePolarity,Positive*%
%FSLAX46Y46*%
G04 Gerber Fmt 4.6, Leading zero omitted, Abs format (unit mm)*
G04 Created by KiCad (PCBNEW 9.0.2) date 2025-05-31 23:28:22*
%MOMM*%
%LPD*%
G01*
G04 APERTURE LIST*
%ADD10C,0.100000*%
%ADD11C,0.150000*%
%ADD12C,0.120000*%
G04 APERTURE END LIST*
D10*
X80208646Y-84205752D02*
X80446741Y-84872419D01*
X80446741Y-84872419D02*
X80684836Y-84205752D01*
X81256265Y-83872419D02*
X81351503Y-83872419D01*
X81351503Y-83872419D02*
X81446741Y-83920038D01*
X81446741Y-83920038D02*
X81494360Y-83967657D01*
X81494360Y-83967657D02*
X81541979Y-84062895D01*
X81541979Y-84062895D02*
X81589598Y-84253371D01*
X81589598Y-84253371D02*
X81589598Y-84491466D01*
X81589598Y-84491466D02*
X81541979Y-84681942D01*
X81541979Y-84681942D02*
X81494360Y-84777180D01*
X81494360Y-84777180D02*
X81446741Y-84824800D01*
X81446741Y-84824800D02*
X81351503Y-84872419D01*
X81351503Y-84872419D02*
X81256265Y-84872419D01*
X81256265Y-84872419D02*
X81161027Y-84824800D01*
X81161027Y-84824800D02*
X81113408Y-84777180D01*
X81113408Y-84777180D02*
X81065789Y-84681942D01*
X81065789Y-84681942D02*
X81018170Y-84491466D01*
X81018170Y-84491466D02*
X81018170Y-84253371D01*
X81018170Y-84253371D02*
X81065789Y-84062895D01*
X81065789Y-84062895D02*
X81113408Y-83967657D01*
X81113408Y-83967657D02*
X81161027Y-83920038D01*
X81161027Y-83920038D02*
X81256265Y-83872419D01*
X82018170Y-84777180D02*
X82065789Y-84824800D01*
X82065789Y-84824800D02*
X82018170Y-84872419D01*
X82018170Y-84872419D02*
X81970551Y-84824800D01*
X81970551Y-84824800D02*
X82018170Y-84777180D01*
X82018170Y-84777180D02*
X82018170Y-84872419D01*
X82684836Y-83872419D02*
X82780074Y-83872419D01*
X82780074Y-83872419D02*
X82875312Y-83920038D01*
X82875312Y-83920038D02*
X82922931Y-83967657D01*
X82922931Y-83967657D02*
X82970550Y-84062895D01*
X82970550Y-84062895D02*
X83018169Y-84253371D01*
X83018169Y-84253371D02*
X83018169Y-84491466D01*
X83018169Y-84491466D02*
X82970550Y-84681942D01*
X82970550Y-84681942D02*
X82922931Y-84777180D01*
X82922931Y-84777180D02*
X82875312Y-84824800D01*
X82875312Y-84824800D02*
X82780074Y-84872419D01*
X82780074Y-84872419D02*
X82684836Y-84872419D01*
X82684836Y-84872419D02*
X82589598Y-84824800D01*
X82589598Y-84824800D02*
X82541979Y-84777180D01*
X82541979Y-84777180D02*
X82494360Y-84681942D01*
X82494360Y-84681942D02*
X82446741Y-84491466D01*
X82446741Y-84491466D02*
X82446741Y-84253371D01*
X82446741Y-84253371D02*
X82494360Y-84062895D01*
X82494360Y-84062895D02*
X82541979Y-83967657D01*
X82541979Y-83967657D02*
X82589598Y-83920038D01*
X82589598Y-83920038D02*
X82684836Y-83872419D01*
X83637217Y-83872419D02*
X83732455Y-83872419D01*
X83732455Y-83872419D02*
X83827693Y-83920038D01*
X83827693Y-83920038D02*
X83875312Y-83967657D01*
X83875312Y-83967657D02*
X83922931Y-84062895D01*
X83922931Y-84062895D02*
X83970550Y-84253371D01*
X83970550Y-84253371D02*
X83970550Y-84491466D01*
X83970550Y-84491466D02*
X83922931Y-84681942D01*
X83922931Y-84681942D02*
X83875312Y-84777180D01*
X83875312Y-84777180D02*
X83827693Y-84824800D01*
X83827693Y-84824800D02*
X83732455Y-84872419D01*
X83732455Y-84872419D02*
X83637217Y-84872419D01*
X83637217Y-84872419D02*
X83541979Y-84824800D01*
X83541979Y-84824800D02*
X83494360Y-84777180D01*
X83494360Y-84777180D02*
X83446741Y-84681942D01*
X83446741Y-84681942D02*
X83399122Y-84491466D01*
X83399122Y-84491466D02*
X83399122Y-84253371D01*
X83399122Y-84253371D02*
X83446741Y-84062895D01*
X83446741Y-84062895D02*
X83494360Y-83967657D01*
X83494360Y-83967657D02*
X83541979Y-83920038D01*
X83541979Y-83920038D02*
X83637217Y-83872419D01*
X84589598Y-83872419D02*
X84684836Y-83872419D01*
X84684836Y-83872419D02*
X84780074Y-83920038D01*
X84780074Y-83920038D02*
X84827693Y-83967657D01*
X84827693Y-83967657D02*
X84875312Y-84062895D01*
X84875312Y-84062895D02*
X84922931Y-84253371D01*
X84922931Y-84253371D02*
X84922931Y-84491466D01*
X84922931Y-84491466D02*
X84875312Y-84681942D01*
X84875312Y-84681942D02*
X84827693Y-84777180D01*
X84827693Y-84777180D02*
X84780074Y-84824800D01*
X84780074Y-84824800D02*
X84684836Y-84872419D01*
X84684836Y-84872419D02*
X84589598Y-84872419D01*
X84589598Y-84872419D02*
X84494360Y-84824800D01*
X84494360Y-84824800D02*
X84446741Y-84777180D01*
X84446741Y-84777180D02*
X84399122Y-84681942D01*
X84399122Y-84681942D02*
X84351503Y-84491466D01*
X84351503Y-84491466D02*
X84351503Y-84253371D01*
X84351503Y-84253371D02*
X84399122Y-84062895D01*
X84399122Y-84062895D02*
X84446741Y-83967657D01*
X84446741Y-83967657D02*
X84494360Y-83920038D01*
X84494360Y-83920038D02*
X84589598Y-83872419D01*
X85875312Y-84872419D02*
X85303884Y-84872419D01*
X85589598Y-84872419D02*
X85589598Y-83872419D01*
X85589598Y-83872419D02*
X85494360Y-84015276D01*
X85494360Y-84015276D02*
X85399122Y-84110514D01*
X85399122Y-84110514D02*
X85303884Y-84158133D01*
X80637217Y-82348609D02*
X80780074Y-82396228D01*
X80780074Y-82396228D02*
X80827693Y-82443847D01*
X80827693Y-82443847D02*
X80875312Y-82539085D01*
X80875312Y-82539085D02*
X80875312Y-82681942D01*
X80875312Y-82681942D02*
X80827693Y-82777180D01*
X80827693Y-82777180D02*
X80780074Y-82824800D01*
X80780074Y-82824800D02*
X80684836Y-82872419D01*
X80684836Y-82872419D02*
X80303884Y-82872419D01*
X80303884Y-82872419D02*
X80303884Y-81872419D01*
X80303884Y-81872419D02*
X80637217Y-81872419D01*
X80637217Y-81872419D02*
X80732455Y-81920038D01*
X80732455Y-81920038D02*
X80780074Y-81967657D01*
X80780074Y-81967657D02*
X80827693Y-82062895D01*
X80827693Y-82062895D02*
X80827693Y-82158133D01*
X80827693Y-82158133D02*
X80780074Y-82253371D01*
X80780074Y-82253371D02*
X80732455Y-82300990D01*
X80732455Y-82300990D02*
X80637217Y-82348609D01*
X80637217Y-82348609D02*
X80303884Y-82348609D01*
X81208646Y-82205752D02*
X81399122Y-82872419D01*
X81399122Y-82872419D02*
X81589598Y-82396228D01*
X81589598Y-82396228D02*
X81780074Y-82872419D01*
X81780074Y-82872419D02*
X81970550Y-82205752D01*
X82780074Y-82872419D02*
X82780074Y-82348609D01*
X82780074Y-82348609D02*
X82732455Y-82253371D01*
X82732455Y-82253371D02*
X82637217Y-82205752D01*
X82637217Y-82205752D02*
X82446741Y-82205752D01*
X82446741Y-82205752D02*
X82351503Y-82253371D01*
X82780074Y-82824800D02*
X82684836Y-82872419D01*
X82684836Y-82872419D02*
X82446741Y-82872419D01*
X82446741Y-82872419D02*
X82351503Y-82824800D01*
X82351503Y-82824800D02*
X82303884Y-82729561D01*
X82303884Y-82729561D02*
X82303884Y-82634323D01*
X82303884Y-82634323D02*
X82351503Y-82539085D01*
X82351503Y-82539085D02*
X82446741Y-82491466D01*
X82446741Y-82491466D02*
X82684836Y-82491466D01*
X82684836Y-82491466D02*
X82780074Y-82443847D01*
X83256265Y-82872419D02*
X83256265Y-81872419D01*
X83684836Y-82872419D02*
X83684836Y-82348609D01*
X83684836Y-82348609D02*
X83637217Y-82253371D01*
X83637217Y-82253371D02*
X83541979Y-82205752D01*
X83541979Y-82205752D02*
X83399122Y-82205752D01*
X83399122Y-82205752D02*
X83303884Y-82253371D01*
X83303884Y-82253371D02*
X83256265Y-82300990D01*
D11*
X82600595Y-73054819D02*
X82600595Y-73864342D01*
X82600595Y-73864342D02*
X82648214Y-73959580D01*
X82648214Y-73959580D02*
X82695833Y-74007200D01*
X82695833Y-74007200D02*
X82791071Y-74054819D01*
X82791071Y-74054819D02*
X82981547Y-74054819D01*
X82981547Y-74054819D02*
X83076785Y-74007200D01*
X83076785Y-74007200D02*
X83124404Y-73959580D01*
X83124404Y-73959580D02*
X83172023Y-73864342D01*
X83172023Y-73864342D02*
X83172023Y-73054819D01*
X84172023Y-74054819D02*
X83600595Y-74054819D01*
X83886309Y-74054819D02*
X83886309Y-73054819D01*
X83886309Y-73054819D02*
X83791071Y-73197676D01*
X83791071Y-73197676D02*
X83695833Y-73292914D01*
X83695833Y-73292914D02*
X83600595Y-73340533D01*
X70784819Y-93704166D02*
X70308628Y-94037499D01*
X70784819Y-94275594D02*
X69784819Y-94275594D01*
X69784819Y-94275594D02*
X69784819Y-93894642D01*
X69784819Y-93894642D02*
X69832438Y-93799404D01*
X69832438Y-93799404D02*
X69880057Y-93751785D01*
X69880057Y-93751785D02*
X69975295Y-93704166D01*
X69975295Y-93704166D02*
X70118152Y-93704166D01*
X70118152Y-93704166D02*
X70213390Y-93751785D01*
X70213390Y-93751785D02*
X70261009Y-93799404D01*
X70261009Y-93799404D02*
X70308628Y-93894642D01*
X70308628Y-93894642D02*
X70308628Y-94275594D01*
X70118152Y-92847023D02*
X70784819Y-92847023D01*
X69737200Y-93085118D02*
X70451485Y-93323213D01*
X70451485Y-93323213D02*
X70451485Y-92704166D01*
X93784819Y-73166666D02*
X93308628Y-73499999D01*
X93784819Y-73738094D02*
X92784819Y-73738094D01*
X92784819Y-73738094D02*
X92784819Y-73357142D01*
X92784819Y-73357142D02*
X92832438Y-73261904D01*
X92832438Y-73261904D02*
X92880057Y-73214285D01*
X92880057Y-73214285D02*
X92975295Y-73166666D01*
X92975295Y-73166666D02*
X93118152Y-73166666D01*
X93118152Y-73166666D02*
X93213390Y-73214285D01*
X93213390Y-73214285D02*
X93261009Y-73261904D01*
X93261009Y-73261904D02*
X93308628Y-73357142D01*
X93308628Y-73357142D02*
X93308628Y-73738094D01*
X92784819Y-72833332D02*
X92784819Y-72214285D01*
X92784819Y-72214285D02*
X93165771Y-72547618D01*
X93165771Y-72547618D02*
X93165771Y-72404761D01*
X93165771Y-72404761D02*
X93213390Y-72309523D01*
X93213390Y-72309523D02*
X93261009Y-72261904D01*
X93261009Y-72261904D02*
X93356247Y-72214285D01*
X93356247Y-72214285D02*
X93594342Y-72214285D01*
X93594342Y-72214285D02*
X93689580Y-72261904D01*
X93689580Y-72261904D02*
X93737200Y-72309523D01*
X93737200Y-72309523D02*
X93784819Y-72404761D01*
X93784819Y-72404761D02*
X93784819Y-72690475D01*
X93784819Y-72690475D02*
X93737200Y-72785713D01*
X93737200Y-72785713D02*
X93689580Y-72833332D01*
X77784819Y-83204166D02*
X77308628Y-83537499D01*
X77784819Y-83775594D02*
X76784819Y-83775594D01*
X76784819Y-83775594D02*
X76784819Y-83394642D01*
X76784819Y-83394642D02*
X76832438Y-83299404D01*
X76832438Y-83299404D02*
X76880057Y-83251785D01*
X76880057Y-83251785D02*
X76975295Y-83204166D01*
X76975295Y-83204166D02*
X77118152Y-83204166D01*
X77118152Y-83204166D02*
X77213390Y-83251785D01*
X77213390Y-83251785D02*
X77261009Y-83299404D01*
X77261009Y-83299404D02*
X77308628Y-83394642D01*
X77308628Y-83394642D02*
X77308628Y-83775594D01*
X76880057Y-82823213D02*
X76832438Y-82775594D01*
X76832438Y-82775594D02*
X76784819Y-82680356D01*
X76784819Y-82680356D02*
X76784819Y-82442261D01*
X76784819Y-82442261D02*
X76832438Y-82347023D01*
X76832438Y-82347023D02*
X76880057Y-82299404D01*
X76880057Y-82299404D02*
X76975295Y-82251785D01*
X76975295Y-82251785D02*
X77070533Y-82251785D01*
X77070533Y-82251785D02*
X77213390Y-82299404D01*
X77213390Y-82299404D02*
X77784819Y-82870832D01*
X77784819Y-82870832D02*
X77784819Y-82251785D01*
X77784819Y-76704166D02*
X77308628Y-77037499D01*
X77784819Y-77275594D02*
X76784819Y-77275594D01*
X76784819Y-77275594D02*
X76784819Y-76894642D01*
X76784819Y-76894642D02*
X76832438Y-76799404D01*
X76832438Y-76799404D02*
X76880057Y-76751785D01*
X76880057Y-76751785D02*
X76975295Y-76704166D01*
X76975295Y-76704166D02*
X77118152Y-76704166D01*
X77118152Y-76704166D02*
X77213390Y-76751785D01*
X77213390Y-76751785D02*
X77261009Y-76799404D01*
X77261009Y-76799404D02*
X77308628Y-76894642D01*
X77308628Y-76894642D02*
X77308628Y-77275594D01*
X77784819Y-75751785D02*
X77784819Y-76323213D01*
X77784819Y-76037499D02*
X76784819Y-76037499D01*
X76784819Y-76037499D02*
X76927676Y-76132737D01*
X76927676Y-76132737D02*
X77022914Y-76227975D01*
X77022914Y-76227975D02*
X77070533Y-76323213D01*
X84545833Y-69384819D02*
X84069643Y-69384819D01*
X84069643Y-69384819D02*
X84069643Y-68384819D01*
X85402976Y-69384819D02*
X84831548Y-69384819D01*
X85117262Y-69384819D02*
X85117262Y-68384819D01*
X85117262Y-68384819D02*
X85022024Y-68527676D01*
X85022024Y-68527676D02*
X84926786Y-68622914D01*
X84926786Y-68622914D02*
X84831548Y-68670533D01*
X63166666Y-74019819D02*
X63166666Y-74734104D01*
X63166666Y-74734104D02*
X63119047Y-74876961D01*
X63119047Y-74876961D02*
X63023809Y-74972200D01*
X63023809Y-74972200D02*
X62880952Y-75019819D01*
X62880952Y-75019819D02*
X62785714Y-75019819D01*
X64166666Y-75019819D02*
X63595238Y-75019819D01*
X63880952Y-75019819D02*
X63880952Y-74019819D01*
X63880952Y-74019819D02*
X63785714Y-74162676D01*
X63785714Y-74162676D02*
X63690476Y-74257914D01*
X63690476Y-74257914D02*
X63595238Y-74305533D01*
X67237319Y-88738094D02*
X66237319Y-88738094D01*
X66237319Y-88738094D02*
X66237319Y-88499999D01*
X66237319Y-88499999D02*
X66284938Y-88357142D01*
X66284938Y-88357142D02*
X66380176Y-88261904D01*
X66380176Y-88261904D02*
X66475414Y-88214285D01*
X66475414Y-88214285D02*
X66665890Y-88166666D01*
X66665890Y-88166666D02*
X66808747Y-88166666D01*
X66808747Y-88166666D02*
X66999223Y-88214285D01*
X66999223Y-88214285D02*
X67094461Y-88261904D01*
X67094461Y-88261904D02*
X67189700Y-88357142D01*
X67189700Y-88357142D02*
X67237319Y-88499999D01*
X67237319Y-88499999D02*
X67237319Y-88738094D01*
X66332557Y-87785713D02*
X66284938Y-87738094D01*
X66284938Y-87738094D02*
X66237319Y-87642856D01*
X66237319Y-87642856D02*
X66237319Y-87404761D01*
X66237319Y-87404761D02*
X66284938Y-87309523D01*
X66284938Y-87309523D02*
X66332557Y-87261904D01*
X66332557Y-87261904D02*
X66427795Y-87214285D01*
X66427795Y-87214285D02*
X66523033Y-87214285D01*
X66523033Y-87214285D02*
X66665890Y-87261904D01*
X66665890Y-87261904D02*
X67237319Y-87833332D01*
X67237319Y-87833332D02*
X67237319Y-87214285D01*
X77611905Y-65954819D02*
X77611905Y-64954819D01*
X77611905Y-64954819D02*
X77850000Y-64954819D01*
X77850000Y-64954819D02*
X77992857Y-65002438D01*
X77992857Y-65002438D02*
X78088095Y-65097676D01*
X78088095Y-65097676D02*
X78135714Y-65192914D01*
X78135714Y-65192914D02*
X78183333Y-65383390D01*
X78183333Y-65383390D02*
X78183333Y-65526247D01*
X78183333Y-65526247D02*
X78135714Y-65716723D01*
X78135714Y-65716723D02*
X78088095Y-65811961D01*
X78088095Y-65811961D02*
X77992857Y-65907200D01*
X77992857Y-65907200D02*
X77850000Y-65954819D01*
X77850000Y-65954819D02*
X77611905Y-65954819D01*
X79135714Y-65954819D02*
X78564286Y-65954819D01*
X78850000Y-65954819D02*
X78850000Y-64954819D01*
X78850000Y-64954819D02*
X78754762Y-65097676D01*
X78754762Y-65097676D02*
X78659524Y-65192914D01*
X78659524Y-65192914D02*
X78564286Y-65240533D01*
X73659580Y-69166666D02*
X73707200Y-69214285D01*
X73707200Y-69214285D02*
X73754819Y-69357142D01*
X73754819Y-69357142D02*
X73754819Y-69452380D01*
X73754819Y-69452380D02*
X73707200Y-69595237D01*
X73707200Y-69595237D02*
X73611961Y-69690475D01*
X73611961Y-69690475D02*
X73516723Y-69738094D01*
X73516723Y-69738094D02*
X73326247Y-69785713D01*
X73326247Y-69785713D02*
X73183390Y-69785713D01*
X73183390Y-69785713D02*
X72992914Y-69738094D01*
X72992914Y-69738094D02*
X72897676Y-69690475D01*
X72897676Y-69690475D02*
X72802438Y-69595237D01*
X72802438Y-69595237D02*
X72754819Y-69452380D01*
X72754819Y-69452380D02*
X72754819Y-69357142D01*
X72754819Y-69357142D02*
X72802438Y-69214285D01*
X72802438Y-69214285D02*
X72850057Y-69166666D01*
X72850057Y-68785713D02*
X72802438Y-68738094D01*
X72802438Y-68738094D02*
X72754819Y-68642856D01*
X72754819Y-68642856D02*
X72754819Y-68404761D01*
X72754819Y-68404761D02*
X72802438Y-68309523D01*
X72802438Y-68309523D02*
X72850057Y-68261904D01*
X72850057Y-68261904D02*
X72945295Y-68214285D01*
X72945295Y-68214285D02*
X73040533Y-68214285D01*
X73040533Y-68214285D02*
X73183390Y-68261904D01*
X73183390Y-68261904D02*
X73754819Y-68833332D01*
X73754819Y-68833332D02*
X73754819Y-68214285D01*
X95159580Y-82141666D02*
X95207200Y-82189285D01*
X95207200Y-82189285D02*
X95254819Y-82332142D01*
X95254819Y-82332142D02*
X95254819Y-82427380D01*
X95254819Y-82427380D02*
X95207200Y-82570237D01*
X95207200Y-82570237D02*
X95111961Y-82665475D01*
X95111961Y-82665475D02*
X95016723Y-82713094D01*
X95016723Y-82713094D02*
X94826247Y-82760713D01*
X94826247Y-82760713D02*
X94683390Y-82760713D01*
X94683390Y-82760713D02*
X94492914Y-82713094D01*
X94492914Y-82713094D02*
X94397676Y-82665475D01*
X94397676Y-82665475D02*
X94302438Y-82570237D01*
X94302438Y-82570237D02*
X94254819Y-82427380D01*
X94254819Y-82427380D02*
X94254819Y-82332142D01*
X94254819Y-82332142D02*
X94302438Y-82189285D01*
X94302438Y-82189285D02*
X94350057Y-82141666D01*
X95254819Y-81189285D02*
X95254819Y-81760713D01*
X95254819Y-81474999D02*
X94254819Y-81474999D01*
X94254819Y-81474999D02*
X94397676Y-81570237D01*
X94397676Y-81570237D02*
X94492914Y-81665475D01*
X94492914Y-81665475D02*
X94540533Y-81760713D01*
D12*
%TO.C,U1*%
X83362500Y-74440000D02*
X82562500Y-74440000D01*
X83362500Y-74440000D02*
X84162500Y-74440000D01*
X83362500Y-77560000D02*
X82562500Y-77560000D01*
X83362500Y-77560000D02*
X84162500Y-77560000D01*
X82062500Y-74490000D02*
X81822500Y-74160000D01*
X82302500Y-74160000D01*
X82062500Y-74490000D01*
G36*
X82062500Y-74490000D02*
G01*
X81822500Y-74160000D01*
X82302500Y-74160000D01*
X82062500Y-74490000D01*
G37*
%TO.C,R4*%
X69410000Y-92810436D02*
X69410000Y-94264564D01*
X67590000Y-92810436D02*
X67590000Y-94264564D01*
%TO.C,R3*%
X92410000Y-72272936D02*
X92410000Y-73727064D01*
X90590000Y-72272936D02*
X90590000Y-73727064D01*
%TO.C,R2*%
X76410000Y-82310436D02*
X76410000Y-83764564D01*
X74590000Y-82310436D02*
X74590000Y-83764564D01*
%TO.C,R1*%
X76410000Y-75810436D02*
X76410000Y-77264564D01*
X74590000Y-75810436D02*
X74590000Y-77264564D01*
%TO.C,L1*%
X84875279Y-68010000D02*
X84549721Y-68010000D01*
X84875279Y-66990000D02*
X84549721Y-66990000D01*
%TO.C,J1*%
X62120000Y-75565000D02*
X63500000Y-75565000D01*
X62120000Y-76945000D02*
X62120000Y-75565000D01*
X62120000Y-78215000D02*
X62120000Y-83405000D01*
X62120000Y-78215000D02*
X64880000Y-78215000D01*
X62120000Y-83405000D02*
X64880000Y-83405000D01*
X64880000Y-78215000D02*
X64880000Y-83405000D01*
%TO.C,D2*%
X67477500Y-89485000D02*
X68947500Y-89485000D01*
X68947500Y-89485000D02*
X68947500Y-87200000D01*
X67477500Y-87200000D02*
X67477500Y-89485000D01*
%TO.C,D1*%
X75990000Y-66500000D02*
X75990000Y-68500000D01*
X75990000Y-66500000D02*
X80000000Y-66500000D01*
X75990000Y-68500000D02*
X80000000Y-68500000D01*
%TO.C,C2*%
X72360000Y-68288748D02*
X72360000Y-69711252D01*
X69640000Y-68288748D02*
X69640000Y-69711252D01*
%TO.C,C1*%
X93860000Y-81263748D02*
X93860000Y-82686252D01*
X91140000Y-81263748D02*
X91140000Y-82686252D01*
%TD*%
M02*
